# xmcd
#
# Track frame offsets:
#	150
#	14971
#	31256
#	46110
#	62308
#	77215
#	93611
#	108013
#	121796
#	138594
#	156580
#	172738
#	188301
#	202570
#	215316
#	232318
#	251395
#	270370
#	285674
#	300901
#
# Disc length: 4199 seconds
#
# Revision: 5
# Processed by: cddbd v1.5.2PL0 Copyright (c) Steve Scherf et al.
# Submitted via: EZCDAudioConverter 4.0.5.1
#
DISCID=fb106514
DTITLE=Alabama - Ultimate Alabama: 20 #1 Hits
DYEAR=2004
DGENRE=Country
TTITLE0=Born Country
TTITLE1=Jukebox in My Mind
TTITLE2=Reckless
TTITLE3=Feels So Right
TTITLE4=Love in the First Degree
TTITLE5=Mountain Music
TTITLE6=Song of the South
TTITLE7=Tennessee River
TTITLE8=Take Me Down
TTITLE9=Lady Down On Love
TTITLE10=She and I
TTITLE11=Down Home
TTITLE12=Why Lady Why
TTITLE13=I'm in a Hurry (and Don't Know Why)
TTITLE14=Roll On (Eighteen Wheeler)
TTITLE15=You've Got the Touch
TTITLE16=There's No Way
TTITLE17=Forty Hour Week (For a Livin')
TTITLE18=If You're Gonna Play in Texas (You Gotta Have a Fiddle in the Band)
TTITLE19=Southern Star
EXTD=
EXTT0=
EXTT1=
EXTT2=
EXTT3=
EXTT4=
EXTT5=
EXTT6=
EXTT7=
EXTT8=
EXTT9=
EXTT10=
EXTT11=
EXTT12=
EXTT13=
EXTT14=
EXTT15=
EXTT16=
EXTT17=
EXTT18=
EXTT19=
PLAYORDER=
